<svg width="30" height="30" viewBox="0 0 30 30" fill="none" xmlns="http://www.w3.org/2000/svg">
<path fill-rule="evenodd" clip-rule="evenodd" d="M3.75 29.375V12.5C3.75 11.1194 4.86937 10 6.25 10V7.5C6.25 6.81 6.81 6.25 7.5 6.25H8.75V1.25C8.75 0.905 9.02938 0.625 9.375 0.625C9.72062 0.625 10 0.905 10 1.25V6.25H11.25C11.94 6.25 12.5 6.81 12.5 7.5V10C13.8806 10 15 11.1194 15 12.5V17.5H19.375V13.75H21.875V11.875H25.625V13.75H26.25V29.375H3.75ZM11.25 8.125C11.25 7.78 10.9706 7.5 10.625 7.5H8.125C7.77938 7.5 7.5 7.78 7.5 8.125V10H11.25V8.125ZM13.75 12.5C13.75 11.81 13.19 11.25 12.5 11.25H6.25C5.56 11.25 5 11.81 5 12.5V28.125H13.75V12.5ZM19.375 18.75H15V28.125H19.375V18.75ZM25 15H20.625V28.125H25V15ZM22.5 16.875H23.125C23.4706 16.875 23.75 17.1544 23.75 17.5V18.125C23.75 18.4706 23.4706 18.75 23.125 18.75H22.5C22.1544 18.75 21.875 18.4706 21.875 18.125V17.5C21.875 17.1544 22.1544 16.875 22.5 16.875ZM22.5 20.625H23.125C23.4706 20.625 23.75 20.9044 23.75 21.25V21.875C23.75 22.2206 23.4706 22.5 23.125 22.5H22.5C22.1544 22.5 21.875 22.2206 21.875 21.875V21.25C21.875 20.9044 22.1544 20.625 22.5 20.625ZM22.5 24.375H23.125C23.4706 24.375 23.75 24.6544 23.75 25V25.625C23.75 25.9706 23.4706 26.25 23.125 26.25H22.5C22.1544 26.25 21.875 25.9706 21.875 25.625V25C21.875 24.6544 22.1544 24.375 22.5 24.375ZM16.875 20.625H17.5C17.8456 20.625 18.125 20.9044 18.125 21.25V21.875C18.125 22.2206 17.8456 22.5 17.5 22.5H16.875C16.5294 22.5 16.25 22.2206 16.25 21.875V21.25C16.25 20.9044 16.5294 20.625 16.875 20.625ZM16.875 24.375H17.5C17.8456 24.375 18.125 24.6544 18.125 25V25.625C18.125 25.9706 17.8456 26.25 17.5 26.25H16.875C16.5294 26.25 16.25 25.9706 16.25 25.625V25C16.25 24.6544 16.5294 24.375 16.875 24.375ZM11.25 26.25H10.625C10.2794 26.25 10 25.9706 10 25.625V25C10 24.655 10.2794 24.375 10.625 24.375H11.25C11.5956 24.375 11.875 24.655 11.875 25V25.625C11.875 25.9706 11.5956 26.25 11.25 26.25ZM11.25 22.5H10.625C10.2794 22.5 10 22.2206 10 21.875V21.25C10 20.905 10.2794 20.625 10.625 20.625H11.25C11.5956 20.625 11.875 20.905 11.875 21.25V21.875C11.875 22.2206 11.5956 22.5 11.25 22.5ZM11.25 18.75H10.625C10.2794 18.75 10 18.4706 10 18.125V17.5C10 17.155 10.2794 16.875 10.625 16.875H11.25C11.5956 16.875 11.875 17.155 11.875 17.5V18.125C11.875 18.4706 11.5956 18.75 11.25 18.75ZM11.25 15H10.625C10.2794 15 10 14.7206 10 14.375V13.75C10 13.405 10.2794 13.125 10.625 13.125H11.25C11.5956 13.125 11.875 13.405 11.875 13.75V14.375C11.875 14.7206 11.5956 15 11.25 15ZM8.125 26.25H7.5C7.15438 26.25 6.875 25.9706 6.875 25.625V25C6.875 24.6544 7.15438 24.375 7.5 24.375H8.125C8.47062 24.375 8.75 24.6544 8.75 25V25.625C8.75 25.9706 8.47062 26.25 8.125 26.25ZM8.125 22.5H7.5C7.15438 22.5 6.875 22.2206 6.875 21.875V21.25C6.875 20.9044 7.15438 20.625 7.5 20.625H8.125C8.47062 20.625 8.75 20.9044 8.75 21.25V21.875C8.75 22.2206 8.47062 22.5 8.125 22.5ZM8.125 18.75H7.5C7.15438 18.75 6.875 18.4706 6.875 18.125V17.5C6.875 17.155 7.15438 16.875 7.5 16.875H8.125C8.47062 16.875 8.75 17.155 8.75 17.5V18.125C8.75 18.4706 8.47062 18.75 8.125 18.75ZM8.125 15H7.5C7.15438 15 6.875 14.7206 6.875 14.375V13.75C6.875 13.405 7.15438 13.125 7.5 13.125H8.125C8.47062 13.125 8.75 13.405 8.75 13.75V14.375C8.75 14.7206 8.47062 15 8.125 15Z" fill="black"/>
</svg>
