<svg width="22" height="22" viewBox="0 0 22 22" fill="none" xmlns="http://www.w3.org/2000/svg">
<path d="M16.801 11.2301C16.4884 11.2301 16.1937 11.3055 15.9306 11.4353C15.6587 10.6716 14.9295 10.1226 14.073 10.1226C13.544 10.1226 13.0644 10.3331 12.7102 10.673C12.356 10.3331 11.8754 10.1226 11.3459 10.1226C11.0783 10.1226 10.8233 10.177 10.59 10.2737V6.79185C10.59 5.70491 9.7056 4.82056 8.61866 4.82056C7.53171 4.82056 6.64784 5.70491 6.64784 6.79185V10.9501V11.4104V12.4284C5.76011 12.4741 4.4447 12.7652 4.4447 14.6255C4.4447 16.0142 6.10679 19.0475 7.80055 19.4339C8.90321 20.9543 10.6927 21.946 12.7094 21.946C16.11 21.946 18.7737 19.3906 18.7737 16.1283C18.7737 15.793 18.5017 15.521 18.1659 15.521C17.8306 15.521 17.5586 15.793 17.5586 16.1283C17.5586 18.7093 15.4285 20.7311 12.7092 20.7311C11.0287 20.7311 9.54604 19.8702 8.6762 18.5672C8.66628 18.5502 8.65734 18.5326 8.64549 18.5166C8.15207 17.7578 7.86268 16.8546 7.86268 15.8837V11.4102V10.9499V6.79161C7.86268 6.37458 8.20163 6.03515 8.61866 6.03515C9.03617 6.03515 9.37512 6.37458 9.37512 6.79161V12.0934V14.1171V14.2138C9.37512 14.5491 9.6471 14.8211 9.9829 14.8211C10.3182 14.8211 10.5902 14.5491 10.5902 14.2138V14.1171V12.0934C10.5902 11.6763 10.9291 11.3374 11.3462 11.3374C11.7622 11.3374 12.1002 11.6737 12.1036 12.0878C12.1036 12.0897 12.1031 12.0917 12.1031 12.0934V14.2138C12.1031 14.246 12.1065 14.2682 12.1111 14.2856C12.1469 14.5869 12.4005 14.8211 12.7111 14.8211C13.0252 14.8211 13.281 14.5818 13.3122 14.2752C13.3146 14.2639 13.3155 14.2499 13.3165 14.2337C13.3165 14.2271 13.3184 14.2204 13.3184 14.2138V12.0934C13.3184 12.0914 13.3184 12.0895 13.3184 12.0878C13.3213 11.6737 13.6583 11.3374 14.073 11.3374C14.491 11.3374 14.8309 11.6763 14.8309 12.0934V13.1851C14.8309 13.1907 14.8304 13.196 14.8304 13.2016V14.2141C14.8304 14.2491 14.8338 14.2755 14.8393 14.2982C14.8809 14.5934 15.1316 14.8214 15.4387 14.8214C15.7503 14.8214 16.0039 14.5861 16.0387 14.2839C16.0416 14.2687 16.0435 14.2518 16.0438 14.2324C16.0443 14.2264 16.0457 14.2201 16.0457 14.2141V13.1931C16.0505 12.78 16.3871 12.4446 16.8007 12.4446C17.2187 12.4446 17.5586 12.7841 17.5586 13.2016V13.7049C17.5586 14.0407 17.8306 14.3127 18.1659 14.3127C18.5017 14.3127 18.7737 14.0407 18.7737 13.7049V13.2016C18.7737 12.1142 17.8889 11.2301 16.801 11.2301ZM5.65978 14.6253C5.65978 14.0105 5.7589 13.7136 6.64809 13.6479V15.8832C6.64809 16.3133 6.69378 16.7332 6.77936 17.1381C6.17883 16.336 5.65978 15.2863 5.65978 14.6253Z" fill="black"/>
<path d="M10.9011 8.27338C10.6703 8.51683 10.6807 8.90123 10.9243 9.13162C11.0414 9.24307 11.192 9.29819 11.3419 9.29819C11.5029 9.29819 11.6634 9.23437 11.7828 9.10841C12.468 8.38507 12.8778 7.43931 12.9372 6.44593C13.0071 5.31232 12.6312 4.22006 11.8795 3.36956C11.1274 2.51905 10.0886 2.01257 8.95474 1.94318C6.61791 1.80151 4.59608 3.58738 4.45345 5.92663C4.38406 7.05999 4.76048 8.15274 5.51259 9.00276C5.73501 9.25395 6.11892 9.27764 6.3701 9.05523C6.62129 8.83281 6.64498 8.4489 6.42257 8.19795C5.88514 7.59065 5.61654 6.81002 5.6661 6.00037C5.76813 4.32982 7.2107 3.0543 8.88125 3.15584C9.69065 3.2054 10.4324 3.56707 10.9698 4.17437C11.5067 4.78167 11.7749 5.56158 11.7253 6.37243C11.6825 7.082 11.3897 7.75723 10.9011 8.27338Z" fill="black"/>
<path d="M13.2196 9.26204C13.5152 9.4187 13.8834 9.30604 14.0406 9.0094C14.4429 8.24979 14.6742 7.42443 14.7286 6.55458C14.9312 3.22799 12.3903 0.356145 9.06422 0.153068C7.45169 0.0549143 5.89961 0.589442 4.69081 1.65922C3.48202 2.72876 2.76183 4.20518 2.66367 5.81626C2.53143 7.98023 3.57728 10.0615 5.39385 11.249C5.49635 11.3158 5.61143 11.3479 5.72578 11.3479C5.92354 11.3479 6.11816 11.2515 6.23468 11.0728C6.41794 10.7921 6.33912 10.4152 6.05844 10.232C4.60644 9.28283 3.7702 7.61953 3.87609 5.89048C3.95442 4.60335 4.52956 3.42382 5.49563 2.5692C6.46169 1.7141 7.70361 1.28812 8.98976 1.36549C11.6477 1.52795 13.6777 3.82223 13.5157 6.47916C13.4722 7.1747 13.2877 7.83421 12.9667 8.44054C12.81 8.73742 12.9229 9.10489 13.2196 9.26204Z" fill="black"/>
</svg>
