<svg width="68" height="68" viewBox="0 0 68 68" fill="none" xmlns="http://www.w3.org/2000/svg">
<path d="M33.8563 5.28847e-06C31.6614 0.000968019 29.6458 1.21183 28.6142 3.14918C27.5826 5.08653 27.703 7.43479 28.9274 9.25644L31.4652 6.7222C31.3813 6.46939 31.339 6.20466 31.3399 5.9383C31.3399 4.55449 32.4617 3.43269 33.8455 3.43269C35.2294 3.43269 36.3511 4.55449 36.3511 5.9383C36.3511 7.32211 35.2294 8.44391 33.8455 8.44391C33.5804 8.44449 33.3169 8.40219 33.0652 8.31863L30.531 10.8529C32.6414 12.2842 35.43 12.2084 37.4595 10.6645C39.489 9.12057 40.3063 6.45331 39.49 4.03747C38.6738 1.62163 36.4063 -0.00338296 33.8563 5.28847e-06Z" fill="#34A853"/>
<path d="M31.4939 17.3066C31.4978 15.3006 30.8482 13.348 29.6433 11.7441L26.3503 15.0336C27.3801 16.9173 27.0095 19.2586 25.4482 20.7321L27.238 25.1062C29.8897 23.3984 31.4927 20.4607 31.4939 17.3066Z" fill="#FBBC04"/>
<path d="M22.2913 22.0278H22.2054C20.1855 22.028 18.3889 20.7442 17.7347 18.8332C17.0806 16.9221 17.7136 14.8066 19.3099 13.569C20.9061 12.3313 23.1126 12.2453 24.8005 13.3549L28.0613 10.094C24.8905 7.52339 20.4127 7.32509 17.0271 9.60536C13.6415 11.8856 12.1422 16.1096 13.3325 20.0141C14.5227 23.9186 18.1234 26.5878 22.2054 26.5916C22.8352 26.5919 23.4635 26.5296 24.081 26.4055L22.2913 22.0278Z" fill="#EA4335"/>
<path d="M33.9817 25.8114C31.9206 25.8094 29.8705 26.1096 27.8966 26.7027L30.506 33.0777C31.6419 32.7962 32.8078 32.6544 33.9781 32.6553C40.7588 32.6573 46.594 37.4487 47.9154 44.0994C49.2368 50.7502 45.6763 57.4083 39.4113 60.0021C33.1463 62.596 25.9214 60.4034 22.1547 54.765C18.3881 49.1267 19.1286 41.6128 23.9234 36.8182C24.9239 35.8208 26.0662 34.9765 27.3132 34.3126L24.7324 27.9555C15.1124 32.6669 10.5577 43.8456 14.1458 53.9385C17.7338 64.0314 28.3228 69.8265 38.758 67.4081C49.1931 64.9898 56.1535 55.1276 54.9362 44.4853C53.7189 33.843 44.7112 25.8073 33.9995 25.8079L33.9817 25.8114Z" fill="#4285F4"/>
</svg>
