<svg width="34" height="34" viewBox="0 0 34 34" fill="none" xmlns="http://www.w3.org/2000/svg">
<path d="M16.9281 2.64423e-06C15.8307 0.00048401 14.8229 0.605916 14.3071 1.57459C13.7913 2.54326 13.8515 3.71739 14.4637 4.62822L15.7326 3.3611C15.6907 3.2347 15.6695 3.10233 15.67 2.96915C15.67 2.27725 16.2309 1.71635 16.9228 1.71635C17.6147 1.71635 18.1756 2.27725 18.1756 2.96915C18.1756 3.66105 17.6147 4.22195 16.9228 4.22195C16.7902 4.22225 16.6584 4.20109 16.5326 4.15931L15.2655 5.42644C16.3207 6.14211 17.715 6.10419 18.7298 5.33224C19.7445 4.56029 20.1531 3.22666 19.745 2.01873C19.3369 0.810814 18.2031 -0.00169148 16.9281 2.64423e-06Z" fill="#34A853"/>
<path d="M15.747 8.6533C15.7489 7.65031 15.4241 6.67399 14.8217 5.87207L13.1751 7.51682C13.6901 8.45865 13.5048 9.62931 12.7241 10.3661L13.619 12.5531C14.9449 11.6992 15.7463 10.2304 15.747 8.6533Z" fill="#FBBC04"/>
<path d="M11.1456 11.0139H11.1027C10.0927 11.014 9.19444 10.3721 8.86737 9.41658C8.54029 8.46107 8.85679 7.40332 9.65493 6.7845C10.4531 6.16567 11.5563 6.12265 12.4002 6.67743L14.0307 5.047C12.4453 3.76169 10.2064 3.66255 8.51356 4.80268C6.82075 5.94281 6.07109 8.05479 6.66623 10.007C7.26137 11.9593 9.06172 13.2939 11.1027 13.2958C11.4176 13.296 11.7318 13.2648 12.0405 13.2028L11.1456 11.0139Z" fill="#EA4335"/>
<path d="M16.9908 12.9056C15.9603 12.9046 14.9352 13.0547 13.9483 13.3512L15.253 16.5387C15.8209 16.398 16.4039 16.3271 16.989 16.3275C20.3794 16.3285 23.297 18.7242 23.9577 22.0496C24.6184 25.375 22.8381 28.704 19.7056 30.0009C16.5731 31.2979 12.9607 30.2016 11.0774 27.3824C9.19403 24.5632 9.56429 20.8063 11.9617 18.409C12.462 17.9103 13.0331 17.4881 13.6566 17.1562L12.3662 13.9776C7.55621 16.3333 5.27885 21.9227 7.07288 26.9691C8.86691 32.0156 14.1614 34.9131 19.379 33.7039C24.5965 32.4948 28.0768 27.5637 27.4681 22.2425C26.8595 16.9214 22.3556 12.9035 16.9998 12.9038L16.9908 12.9056Z" fill="#4285F4"/>
</svg>
