<svg width="52" height="52" viewBox="0 0 52 52" fill="none" xmlns="http://www.w3.org/2000/svg">
<g filter="url(#filter0_d_525_1156)">
<rect x="4" width="44" height="44" rx="6" fill="white"/>
</g>
<g clip-path="url(#clip0_525_1156)">
<path d="M19.0136 18.9007C19.0136 19.2917 19.0562 19.6086 19.1307 19.8411C19.2158 20.0736 19.3222 20.3271 19.4712 20.6019C19.5244 20.6864 19.5457 20.7709 19.5457 20.8449C19.5457 20.9506 19.4819 21.0562 19.3435 21.1619L18.6731 21.6057C18.5773 21.6691 18.4815 21.7008 18.3964 21.7008C18.29 21.7008 18.1836 21.6479 18.0771 21.5528C17.9282 21.3943 17.8005 21.2253 17.694 21.0562C17.5876 20.8766 17.4812 20.6758 17.3641 20.4328C16.5341 21.4049 15.4912 21.8909 14.2354 21.8909C13.3415 21.8909 12.6285 21.6374 12.1071 21.1302C11.5856 20.623 11.3196 19.9468 11.3196 19.1015C11.3196 18.2033 11.6388 17.4743 12.288 16.9248C12.9371 16.3754 13.7991 16.1007 14.8952 16.1007C15.2571 16.1007 15.6295 16.1324 16.0233 16.1852C16.417 16.238 16.8214 16.3226 17.2471 16.4176V15.6463C17.2471 14.8433 17.0768 14.2833 16.7469 13.9557C16.4064 13.6282 15.8317 13.4697 15.0123 13.4697C14.6398 13.4697 14.2567 13.5119 13.863 13.607C13.4692 13.7021 13.0861 13.8184 12.7137 13.9663C12.5434 14.0403 12.4157 14.0825 12.3412 14.1037C12.2667 14.1248 12.2135 14.1353 12.1709 14.1353C12.0219 14.1353 11.9474 14.0297 11.9474 13.8078V13.2901C11.9474 13.121 11.9687 12.9942 12.0219 12.9202C12.0752 12.8463 12.1709 12.7723 12.3199 12.6983C12.6924 12.5082 13.1393 12.3497 13.6608 12.2229C14.1822 12.0855 14.7356 12.0221 15.3209 12.0221C16.5873 12.0221 17.5131 12.3074 18.1091 12.878C18.6944 13.4485 18.9923 14.315 18.9923 15.4773V18.9007H19.0136ZM14.693 20.5068C15.0442 20.5068 15.406 20.4434 15.7892 20.3166C16.1723 20.1898 16.5128 19.9573 16.8001 19.6403C16.9704 19.4396 17.0981 19.2177 17.1619 18.9641C17.2258 18.7105 17.2684 18.4041 17.2684 18.0448V17.6011C16.9598 17.5271 16.6299 17.4637 16.2893 17.4214C15.9488 17.3792 15.6189 17.358 15.289 17.358C14.576 17.358 14.0545 17.4954 13.7034 17.7807C13.3522 18.066 13.1819 18.4675 13.1819 18.9958C13.1819 19.4924 13.3096 19.8622 13.5756 20.1158C13.8311 20.38 14.2035 20.5068 14.693 20.5068ZM23.2384 21.6479C23.0469 21.6479 22.9192 21.6162 22.834 21.5423C22.7489 21.4789 22.6744 21.3309 22.6106 21.1302L20.1097 12.9625C20.0459 12.7512 20.014 12.6138 20.014 12.5399C20.014 12.3708 20.0991 12.2757 20.2694 12.2757H21.3123C21.5145 12.2757 21.6528 12.3074 21.7273 12.3814C21.8124 12.4448 21.8763 12.5927 21.9401 12.7934L23.728 19.7883L25.3881 12.7934C25.4413 12.5821 25.5051 12.4448 25.5903 12.3814C25.6754 12.318 25.8244 12.2757 26.016 12.2757H26.8673C27.0695 12.2757 27.2078 12.3074 27.293 12.3814C27.3781 12.4448 27.4526 12.5927 27.4952 12.7934L29.1766 19.8728L31.0176 12.7934C31.0815 12.5821 31.156 12.4448 31.2305 12.3814C31.3156 12.318 31.4539 12.2757 31.6455 12.2757H32.6352C32.8054 12.2757 32.9012 12.3602 32.9012 12.5399C32.9012 12.5927 32.8906 12.6455 32.8799 12.7089C32.8693 12.7723 32.848 12.8568 32.8054 12.9731L30.2408 21.1407C30.1769 21.3521 30.1024 21.4894 30.0173 21.5528C29.9322 21.6162 29.7938 21.6585 29.6129 21.6585H28.6977C28.4955 21.6585 28.3572 21.6268 28.272 21.5528C28.1869 21.4789 28.1124 21.3415 28.0698 21.1302L26.4203 14.315L24.7815 21.1196C24.7283 21.3309 24.6644 21.4683 24.5793 21.5423C24.4942 21.6162 24.3452 21.6479 24.1536 21.6479H23.2384ZM36.9132 21.9332C36.3598 21.9332 35.8064 21.8698 35.2744 21.743C34.7423 21.6162 34.3272 21.4789 34.0505 21.3204C33.8803 21.2253 33.7632 21.1196 33.7206 21.0245C33.6781 20.9294 33.6568 20.8238 33.6568 20.7287V20.1898C33.6568 19.9679 33.7419 19.8622 33.9016 19.8622C33.9654 19.8622 34.0293 19.8728 34.0931 19.8939C34.157 19.9151 34.2527 19.9573 34.3592 19.9996C34.721 20.1581 35.1147 20.2849 35.5298 20.3694C35.9554 20.4539 36.3705 20.4962 36.7961 20.4962C37.4666 20.4962 37.988 20.38 38.3498 20.1475C38.7117 19.9151 38.9032 19.5769 38.9032 19.1437C38.9032 18.8479 38.8074 18.6049 38.6159 18.4041C38.4243 18.2033 38.0625 18.0237 37.5411 17.8547L35.998 17.3792C35.2211 17.1362 34.6465 16.7769 34.2953 16.3014C33.9441 15.8365 33.7632 15.3188 33.7632 14.7693C33.7632 14.3255 33.859 13.9346 34.0505 13.5965C34.2421 13.2584 34.4975 12.9625 34.8168 12.73C35.136 12.487 35.4978 12.3074 35.9235 12.1806C36.3492 12.0538 36.7961 12.001 37.2644 12.001C37.4985 12.001 37.7433 12.0115 37.9774 12.0432C38.2221 12.0749 38.4456 12.1172 38.6691 12.1595C38.8819 12.2123 39.0841 12.2651 39.2757 12.3285C39.4672 12.3919 39.6162 12.4553 39.7226 12.5187C39.8716 12.6033 39.978 12.6878 40.0419 12.7829C40.1057 12.8674 40.1377 12.9836 40.1377 13.1316V13.6282C40.1377 13.8501 40.0525 13.9663 39.8929 13.9663C39.8078 13.9663 39.6694 13.924 39.4885 13.8395C38.8819 13.5648 38.2009 13.4274 37.4453 13.4274C36.8387 13.4274 36.3598 13.5225 36.0299 13.7233C35.7 13.924 35.5298 14.2304 35.5298 14.6637C35.5298 14.9595 35.6362 15.2131 35.849 15.4139C36.0618 15.6146 36.4556 15.8154 37.0196 15.995L38.5308 16.4705C39.297 16.7135 39.8503 17.0516 40.1802 17.4848C40.5101 17.9181 40.6698 18.4147 40.6698 18.9641C40.6698 19.4185 40.574 19.8305 40.3931 20.1898C40.2015 20.549 39.9461 20.866 39.6162 21.1196C39.2863 21.3838 38.8926 21.574 38.435 21.7113C37.9561 21.8592 37.4559 21.9332 36.9132 21.9332Z" fill="#252F3E"/>
<path d="M38.9245 27.0684C35.4233 29.636 30.3365 30.999 25.9627 30.999C19.833 30.999 14.3099 28.7484 10.1383 25.008C9.80844 24.7121 10.1064 24.3106 10.5002 24.5431C15.0123 27.1423 20.578 28.7167 26.3352 28.7167C30.2195 28.7167 34.4869 27.9137 38.4137 26.2653C38.999 26.0012 39.4992 26.6457 38.9245 27.0684Z" fill="#FF9900"/>
<path d="M40.3824 25.4202C39.9355 24.8496 37.424 25.1454 36.2853 25.2828C35.9448 25.3251 35.8916 25.0292 36.2002 24.8073C38.2009 23.4126 41.4892 23.8141 41.8723 24.279C42.2554 24.7545 41.7659 28.0194 39.8929 29.5832C39.6056 29.8263 39.3289 29.6995 39.4566 29.3825C39.8823 28.3364 40.8294 25.9802 40.3824 25.4202Z" fill="#FF9900"/>
</g>
<defs>
<filter id="filter0_d_525_1156" x="0" y="0" width="52" height="52" filterUnits="userSpaceOnUse" color-interpolation-filters="sRGB">
<feFlood flood-opacity="0" result="BackgroundImageFix"/>
<feColorMatrix in="SourceAlpha" type="matrix" values="0 0 0 0 0 0 0 0 0 0 0 0 0 0 0 0 0 0 127 0" result="hardAlpha"/>
<feOffset dy="4"/>
<feGaussianBlur stdDeviation="2"/>
<feComposite in2="hardAlpha" operator="out"/>
<feColorMatrix type="matrix" values="0 0 0 0 0 0 0 0 0 0 0 0 0 0 0 0 0 0 0.07 0"/>
<feBlend mode="normal" in2="BackgroundImageFix" result="effect1_dropShadow_525_1156"/>
<feBlend mode="normal" in="SourceGraphic" in2="effect1_dropShadow_525_1156" result="shape"/>
</filter>
<clipPath id="clip0_525_1156">
<rect width="32" height="19" fill="white" transform="translate(10 12)"/>
</clipPath>
</defs>
</svg>
