<svg width="193" height="24" viewBox="0 0 193 24" fill="none" xmlns="http://www.w3.org/2000/svg">
<g clip-path="url(#clip0_525_941)">
<path d="M15.2086 14.0507C15.2008 14.0434 15.1934 14.0356 15.1865 14.0272C15.1584 13.9986 15.1292 13.9659 15.0981 13.925C14.6401 13.3781 14.3881 12.6837 14.387 11.9654C14.3859 11.2472 14.6358 10.5519 15.092 10.0036C15.1232 9.96574 15.1523 9.93201 15.1795 9.90135C15.3661 9.71934 15.474 9.46941 15.4793 9.20654C15.4847 8.94367 15.3872 8.6894 15.2081 8.49966C15.0291 8.30992 14.7833 8.20026 14.5247 8.19479C14.2662 8.18933 14.0161 8.28852 13.8295 8.47053L13.8064 8.49302C13.7782 8.52061 13.7451 8.55025 13.7059 8.58193C13.1651 9.04536 12.4806 9.29954 11.7733 9.29954C11.0661 9.29954 10.3816 9.04536 9.84083 8.58193C9.80464 8.55025 9.77147 8.52061 9.7403 8.49302L9.71718 8.47053C9.62117 8.37747 9.50741 8.30543 9.38292 8.25884C9.25843 8.21226 9.12588 8.19213 8.99343 8.1997C8.80373 8.21071 8.6213 8.27778 8.46855 8.39268C8.31579 8.50758 8.19934 8.66532 8.13349 8.84654C8.06763 9.02776 8.05524 9.22458 8.09783 9.41286C8.14041 9.60114 8.23612 9.77269 8.37322 9.90646C8.48983 10.0301 8.66574 10.2386 8.85974 10.4757C9.20179 10.894 9.38906 11.4208 9.38906 11.9648C9.38906 12.5088 9.20179 13.0356 8.85974 13.4539C8.66473 13.693 8.48681 13.9025 8.36819 14.0272L8.34608 14.0507C8.17329 14.2385 8.07899 14.4871 8.08309 14.7442C8.08719 15.0013 8.18936 15.2467 8.36804 15.4286C8.54673 15.6105 8.78795 15.7148 9.04079 15.7193C9.29363 15.7239 9.53832 15.6284 9.72322 15.4529L9.75036 15.4325L9.77549 15.407C10.3092 14.8701 11.0296 14.5691 11.7804 14.5691C12.5311 14.5691 13.2516 14.8701 13.7853 15.407L13.8104 15.4325L13.8335 15.455C14.0164 15.6409 14.2644 15.7454 14.5231 15.7454C14.7817 15.7454 15.0298 15.6409 15.2127 15.455C15.3955 15.269 15.4983 15.0168 15.4983 14.7539C15.4983 14.4909 15.3955 14.2387 15.2127 14.0528L15.2086 14.0507Z" fill="white"/>
<path d="M15.9225 6.02995C15.6261 5.44535 15.4718 4.797 15.4727 4.13926C15.4735 3.48153 15.6295 2.8336 15.9275 2.24981C16.2255 1.66601 16.6568 1.16339 17.1853 0.784077C17.7139 0.404768 18.3241 0.159837 18.9649 0.0698286C19.6058 -0.0201801 20.2585 0.0473571 20.8683 0.266776C21.4782 0.486194 22.0274 0.851097 22.4699 1.33088C22.9125 1.81066 23.2354 2.39133 23.4116 3.02419C23.5878 3.65705 23.6122 4.32365 23.4827 4.96807C23.4612 5.07553 23.4162 5.17671 23.3511 5.26415C23.286 5.35158 23.2024 5.42304 23.1065 5.47326C23.0106 5.52348 22.9049 5.55118 22.797 5.55431C22.6892 5.55744 22.5821 5.53592 22.4835 5.49134C22.3333 5.42354 22.2105 5.30535 22.1356 5.15653C22.0608 5.00771 22.0385 4.83728 22.0724 4.67373C22.186 4.10384 22.112 3.5118 21.862 2.98886C21.6119 2.46591 21.1996 2.0411 20.6887 1.7799C20.1777 1.5187 19.5964 1.43561 19.0345 1.54344C18.4725 1.65126 17.961 1.94402 17.5788 2.37658C17.1966 2.80915 16.9649 3.35751 16.9195 3.93714C16.8741 4.51677 17.0175 5.0955 17.3275 5.58412C17.6375 6.07274 18.097 6.44414 18.6351 6.64105C19.1732 6.83797 19.7601 6.84948 20.3053 6.67382C20.4608 6.62446 20.6284 6.63058 20.7801 6.69116C20.9318 6.75175 21.0586 6.86317 21.1396 7.00699C21.1934 7.10144 21.2257 7.20693 21.2341 7.31573C21.2425 7.42452 21.2269 7.53386 21.1883 7.63571C21.1498 7.73756 21.0893 7.82933 21.0112 7.90428C20.9332 7.97924 20.8397 8.03548 20.7375 8.06887C19.8273 8.35979 18.8453 8.31479 17.9645 7.94181C17.0836 7.56883 16.3606 6.89179 15.9225 6.02995Z" fill="#F16622"/>
<path d="M23.4504 18.8655C23.59 19.5143 23.5745 20.1877 23.4051 20.8291C23.2357 21.4706 22.9175 22.0614 22.477 22.5519C22.0366 23.0423 21.4868 23.4182 20.8739 23.648C20.261 23.8777 19.6028 23.9545 18.9546 23.8721C18.3064 23.7896 17.6871 23.5502 17.1488 23.174C16.6105 22.7978 16.1687 22.2958 15.8607 21.7101C15.5528 21.1244 15.3875 20.4721 15.3788 19.808C15.3701 19.1439 15.5182 18.4874 15.8108 17.8935C15.8592 17.7947 15.9288 17.7081 16.0145 17.6402C16.1001 17.5724 16.1997 17.5249 16.3058 17.5014C16.4119 17.4778 16.5219 17.4788 16.6276 17.5042C16.7333 17.5297 16.832 17.5789 16.9165 17.6483C17.045 17.7538 17.1341 17.9009 17.1691 18.065C17.204 18.2292 17.1826 18.4006 17.1085 18.5507C16.8503 19.0759 16.7692 19.6729 16.8778 20.2496C16.9864 20.8264 17.2787 21.3507 17.7095 21.7418C18.1403 22.1329 18.6857 22.3689 19.2616 22.4135C19.8374 22.4582 20.4117 22.3089 20.8959 21.9887C21.38 21.6686 21.747 21.1953 21.9404 20.642C22.1337 20.0887 22.1426 19.486 21.9656 18.9271C21.7886 18.3682 21.4357 17.884 20.9612 17.5492C20.4867 17.2145 19.917 17.0478 19.3401 17.0749C19.1757 17.0816 19.0139 17.0311 18.8816 16.9316C18.7493 16.8322 18.6543 16.6899 18.6123 16.5281C18.5843 16.4219 18.58 16.3107 18.5997 16.2025C18.6194 16.0944 18.6627 15.9921 18.7263 15.9032C18.7898 15.8142 18.8722 15.7409 18.9673 15.6884C19.0623 15.636 19.1677 15.6058 19.2757 15.6001C20.2385 15.5568 21.1854 15.8607 21.9492 16.4582C22.713 17.0556 23.2447 17.9082 23.4504 18.8655Z" fill="#F16622"/>
<path d="M3.12422 15.8137C3.75848 15.6586 4.42005 15.6603 5.05354 15.8186C5.68704 15.9769 6.274 16.2872 6.76529 16.7236C7.25657 17.1599 7.63788 17.7096 7.87727 18.3266C8.11666 18.9435 8.20718 19.6099 8.14123 20.2697C8.07528 20.9296 7.8548 21.5638 7.49823 22.1192C7.14167 22.6746 6.65941 23.135 6.09184 23.462C5.52426 23.7889 4.8879 23.9729 4.23604 23.9984C3.58418 24.0239 2.9358 23.8902 2.34518 23.6086C2.24587 23.562 2.15822 23.4931 2.08878 23.4071C2.01934 23.3211 1.96992 23.2203 1.94421 23.1122C1.91849 23.0041 1.91715 22.8915 1.94028 22.7828C1.96342 22.674 2.01043 22.572 2.0778 22.4844C2.1788 22.3514 2.32143 22.2574 2.4821 22.218C2.64276 22.1786 2.81184 22.1962 2.96138 22.2677C3.48351 22.5178 4.07208 22.5863 4.63629 22.4626C5.20051 22.339 5.70903 22.03 6.08342 21.5834C6.45782 21.1367 6.67729 20.5773 6.70799 19.9913C6.73868 19.4053 6.5789 18.8253 6.25328 18.3408C5.92766 17.8563 5.4543 17.4941 4.90619 17.3102C4.35809 17.1263 3.7657 17.1308 3.22039 17.3231C2.67508 17.5154 2.20714 17.8848 1.88875 18.3743C1.57036 18.8637 1.4192 19.4461 1.45859 20.0316C1.46889 20.1983 1.4229 20.3637 1.32822 20.5003C1.23354 20.6369 1.09584 20.7365 0.937891 20.7827C0.834386 20.8138 0.725362 20.821 0.618777 20.8038C0.512193 20.7865 0.410739 20.7453 0.321825 20.6831C0.232911 20.6209 0.158781 20.5393 0.104847 20.4443C0.0509128 20.3492 0.0185371 20.2432 0.0100836 20.1338C-0.0550591 19.156 0.22171 18.1862 0.791519 17.3958C1.36133 16.6053 2.18753 16.045 3.12422 15.8137Z" fill="#F16622"/>
<path d="M6.83543 7.21654C6.35232 7.6628 5.77102 7.9848 5.14027 8.15554C4.50952 8.32628 3.8477 8.34079 3.21029 8.19785C2.57289 8.05491 1.97847 7.75869 1.47689 7.33402C0.975304 6.90935 0.581163 6.36861 0.327511 5.75713C0.0738587 5.14565 -0.0319128 4.48125 0.019064 3.81964C0.0700408 3.15803 0.27628 2.51848 0.620492 1.95462C0.964704 1.39076 1.43686 0.919019 1.99736 0.578942C2.55787 0.238865 3.1904 0.0403658 3.84192 8.66576e-05C3.95061 -0.00679642 4.05942 0.0112399 4.16033 0.0528627C4.26124 0.0944855 4.35165 0.158631 4.4249 0.240558C4.49814 0.322485 4.55235 0.420099 4.5835 0.526187C4.61465 0.632276 4.62196 0.744125 4.60488 0.85347C4.57889 1.01922 4.4981 1.17101 4.37584 1.28379C4.25359 1.39657 4.09717 1.46361 3.93239 1.47383C3.35586 1.50902 2.80674 1.73614 2.36977 2.12014C1.93281 2.50414 1.63228 3.02368 1.51458 3.59859C1.39688 4.17349 1.46854 4.7718 1.7185 5.30119C1.96847 5.83057 2.38284 6.2616 2.89768 6.52776C3.41252 6.79392 3.9992 6.88041 4.56719 6.77389C5.13518 6.66737 5.6529 6.37376 6.04046 5.93836C6.42802 5.50297 6.66388 4.94999 6.71163 4.36478C6.75938 3.77956 6.61638 3.19463 6.30468 2.70025C6.21656 2.5591 6.17848 2.39158 6.19676 2.22542C6.21504 2.05927 6.28858 1.90444 6.40521 1.78657C6.48171 1.70851 6.57444 1.64886 6.67658 1.61201C6.77873 1.57515 6.8877 1.56203 6.99548 1.57359C7.10327 1.58516 7.20714 1.62113 7.29947 1.67885C7.3918 1.73657 7.47024 1.81459 7.52903 1.90717C8.04739 2.73334 8.26206 3.71911 8.13516 4.69054C8.00825 5.66196 7.54794 6.55659 6.83543 7.21654Z" fill="#F16622"/>
<path d="M59.0106 4.75649C59.1396 4.62424 59.2408 4.46671 59.308 4.29348C59.3752 4.12025 59.4071 3.93493 59.4017 3.74878C59.4077 3.56258 59.376 3.37712 59.3087 3.20385C59.2414 3.03059 59.1398 2.87323 59.0102 2.7415C58.8806 2.60977 58.7259 2.50647 58.5555 2.43802C58.385 2.36956 58.2026 2.33739 58.0195 2.34351H45.3599C45.1768 2.33769 44.9946 2.37007 44.8243 2.43863C44.654 2.50719 44.4993 2.6105 44.3698 2.74216C44.2403 2.87383 44.1387 3.03108 44.0713 3.2042C44.0039 3.37733 43.972 3.56266 43.9777 3.74878C43.9719 3.93498 44.0036 4.12043 44.071 4.29367C44.1384 4.46692 44.2399 4.62429 44.3695 4.75607C44.499 4.88785 44.6537 4.99124 44.824 5.05987C44.9944 5.12849 45.1768 5.16089 45.3599 5.15507H50.2241V20.1337C50.2136 20.3374 50.2441 20.541 50.3135 20.7323C50.3829 20.9236 50.4899 21.0985 50.628 21.2463C50.766 21.3942 50.9323 21.512 51.1165 21.5925C51.3008 21.6729 51.4992 21.7144 51.6997 21.7144C51.9003 21.7144 52.0987 21.6729 52.283 21.5925C52.4672 21.512 52.6335 21.3942 52.7715 21.2463C52.9096 21.0985 53.0166 20.9236 53.086 20.7323C53.1554 20.541 53.1859 20.3374 53.1754 20.1337V5.15507H58.0165C58.2001 5.16098 58.3831 5.12868 58.554 5.06014C58.725 4.9916 58.8804 4.88827 59.0106 4.75649Z" fill="white"/>
<path d="M74.0305 19.5318L67.3599 3.34922C67.1177 2.69206 66.6392 2.35071 65.9687 2.35071C65.3364 2.35071 64.863 2.69104 64.5815 3.34309L57.9311 19.4909C57.8499 19.6956 57.8054 19.9132 57.7994 20.1338C57.7956 20.5243 57.9424 20.9007 58.2085 21.1824C58.3404 21.3287 58.5016 21.4447 58.6812 21.5226C58.8608 21.6005 59.0547 21.6385 59.2499 21.6341C59.5362 21.6361 59.8165 21.5503 60.0541 21.3878C60.3025 21.2212 60.4991 20.9862 60.621 20.7102L61.9037 17.4949H70.0629L71.3265 20.7061C71.4347 20.9902 71.6304 21.2311 71.8844 21.3929C72.1243 21.5497 72.4033 21.6334 72.6885 21.6341C72.8833 21.6382 73.0769 21.602 73.2575 21.5277C73.438 21.4534 73.6019 21.3425 73.739 21.2018C73.8764 21.0668 73.9853 20.9047 74.0591 20.7255C74.1329 20.5462 74.17 20.3536 74.1682 20.1593C74.1607 19.9433 74.1141 19.7306 74.0305 19.5318ZM62.926 14.9266L66.018 7.27682L69.0336 14.9266H62.926Z" fill="white"/>
<path d="M86.5101 2.34356H73.8445C73.6615 2.33775 73.4792 2.37012 73.3089 2.43868C73.1386 2.50725 72.984 2.61055 72.8545 2.74222C72.725 2.87389 72.6233 3.03113 72.5559 3.20426C72.4885 3.37738 72.4566 3.56272 72.4624 3.74883C72.4565 3.93503 72.4882 4.12048 72.5556 4.29373C72.623 4.46697 72.7246 4.62434 72.8541 4.75612C72.9836 4.8879 73.1383 4.99129 73.3087 5.05992C73.479 5.12854 73.6614 5.16095 73.8445 5.15513H78.7097V20.1338C78.7046 20.3343 78.739 20.5339 78.8109 20.7206C78.8828 20.9074 78.9908 21.0777 79.1285 21.2214C79.2662 21.365 79.4307 21.4792 79.6125 21.5572C79.7943 21.6352 79.9896 21.6753 80.1869 21.6753C80.3842 21.6753 80.5795 21.6352 80.7612 21.5572C80.943 21.4792 81.1076 21.365 81.2453 21.2214C81.383 21.0777 81.4909 20.9074 81.5629 20.7206C81.6348 20.5339 81.6692 20.3343 81.664 20.1338V5.15513H86.5051C86.6883 5.16095 86.8706 5.12854 87.041 5.05992C87.2113 4.99129 87.366 4.8879 87.4956 4.75612C87.6251 4.62434 87.7267 4.46697 87.794 4.29373C87.8614 4.12048 87.8931 3.93503 87.8873 3.74883C87.893 3.56272 87.8612 3.37738 87.7937 3.20426C87.7263 3.03113 87.6247 2.87389 87.4952 2.74222C87.3657 2.61055 87.211 2.50725 87.0407 2.43868C86.8705 2.37012 86.6882 2.33775 86.5051 2.34356H86.5101Z" fill="white"/>
<path d="M43.5194 16.0937C43.5194 17.2752 43.1957 18.3013 42.5685 19.1496C41.9247 20.0034 41.0592 20.6575 40.0695 21.0382C39.0198 21.4553 37.9015 21.6651 36.7745 21.6566C35.3061 21.6729 33.858 21.3063 32.5687 20.5916C32.0144 20.2848 31.5066 19.8982 31.0609 19.4439C31.0277 19.4092 30.9885 19.3754 30.9603 19.3417C30.9322 19.308 30.8829 19.2538 30.8488 19.2099C30.692 19.0013 30.5958 18.7523 30.5709 18.491C30.546 18.2297 30.5935 17.9666 30.708 17.7313C30.8225 17.4961 30.9995 17.298 31.2188 17.1596C31.4382 17.0212 31.6913 16.948 31.9495 16.9481C32.2964 16.9437 32.6316 17.0755 32.8853 17.3161C33.053 17.5128 33.2351 17.6962 33.4301 17.8649C33.6639 18.0483 33.9139 18.2091 34.177 18.3452C34.9816 18.757 35.8718 18.9656 36.7725 18.9533C37.8782 18.9533 38.8181 18.6978 39.58 18.1827C40.3138 17.6881 40.6757 17.0258 40.6757 16.1673C40.6757 15.3385 40.3671 14.6466 39.7348 14.0528C39.1025 13.459 38.0973 13.0819 36.7745 12.949C34.8203 12.7579 33.2562 12.1641 32.1284 11.1881C30.9845 10.1967 30.4015 8.93145 30.4015 7.43522C30.3823 6.4409 30.6988 5.46993 31.2981 4.68395C31.8871 3.92357 32.6973 3.33489 33.7156 2.93732C34.7977 2.53003 35.9444 2.32874 37.0981 2.34353C38.4632 2.34353 39.6303 2.63276 40.5762 3.20203C40.6918 3.2705 40.8084 3.3492 40.924 3.42789C40.9813 3.46673 41.0396 3.50659 41.0928 3.54542C41.0973 3.55044 41.102 3.55522 41.1069 3.55973C41.2567 3.68666 41.3772 3.84561 41.4597 4.02526C41.5423 4.20491 41.5848 4.40084 41.5844 4.59912C41.5849 4.77927 41.5505 4.95776 41.4831 5.12438C41.4158 5.291 41.3167 5.44248 41.1917 5.57015C41.0667 5.69782 40.9182 5.79918 40.7546 5.86843C40.591 5.93768 40.4156 5.97347 40.2384 5.97373C40.0126 5.97478 39.7902 5.91745 39.5921 5.80714C39.5539 5.78773 39.5197 5.7632 39.4815 5.73867C39.389 5.6845 39.2925 5.63034 39.187 5.56697C38.6029 5.22357 37.846 5.04677 36.9383 5.04677C35.8145 5.04677 34.9028 5.26752 34.2172 5.70392C33.5608 6.1209 33.2432 6.7147 33.2432 7.5088C33.2432 8.25487 33.5327 8.86297 34.1308 9.36785C34.7289 9.87273 35.8577 10.2263 37.4691 10.3899C39.3649 10.582 40.8606 11.1748 41.9131 12.1559C42.9786 13.1554 43.5194 14.48 43.5194 16.0937Z" fill="white"/>
<path d="M102.431 16.0938C102.431 17.2753 102.107 18.3014 101.481 19.1496C100.836 20.0032 99.9707 20.6573 98.9809 21.0383C97.9311 21.4555 96.8128 21.6653 95.6858 21.6566C94.2188 21.6723 92.7722 21.3057 91.484 20.5917C90.9269 20.2855 90.4163 19.8989 89.9682 19.444C89.935 19.4092 89.8958 19.3755 89.8677 19.3418C89.8395 19.3081 89.7903 19.2539 89.7561 19.2099C89.5991 19.001 89.5028 18.7515 89.4781 18.4898C89.4534 18.2281 89.5014 17.9646 89.6165 17.7291C89.7316 17.4937 89.9092 17.2957 90.1294 17.1577C90.3495 17.0197 90.6032 16.9471 90.8618 16.9482C91.2087 16.9437 91.544 17.0755 91.7977 17.3161C91.9653 17.5128 92.1475 17.6963 92.3425 17.865C92.5797 18.0493 92.8334 18.2105 93.1004 18.3463C93.905 18.7581 94.7952 18.9667 95.6959 18.9544C96.8016 18.9544 97.7415 18.6989 98.5044 18.1838C99.2372 17.6892 99.5991 17.0269 99.5991 16.1684C99.5991 15.3396 99.2905 14.6477 98.6582 14.0539C98.0259 13.4601 97.0227 13.087 95.6959 12.9501C93.7417 12.759 92.1776 12.1652 91.0498 11.1892C89.9059 10.1978 89.3228 8.93255 89.3228 7.43632C89.3037 6.442 89.6202 5.47103 90.2195 4.68505C90.8085 3.92467 91.6187 3.33599 92.632 2.93842C93.7141 2.53113 94.8607 2.32984 96.0145 2.34463C97.3796 2.34463 98.5466 2.63386 99.4925 3.20312C99.6081 3.2716 99.7247 3.3503 99.8403 3.42899C99.8976 3.46783 99.9559 3.50769 100.009 3.54652L100.023 3.56083C100.173 3.68775 100.293 3.84657 100.375 4.02603C100.458 4.20548 100.5 4.40117 100.5 4.5992C100.5 4.77935 100.466 4.95784 100.398 5.12446C100.331 5.29108 100.232 5.44255 100.107 5.57023C99.9821 5.6979 99.8335 5.79926 99.6699 5.86851C99.5064 5.93776 99.331 5.97354 99.1538 5.97381C98.9289 5.97433 98.7076 5.91703 98.5104 5.80722C98.4722 5.7878 98.4381 5.76327 98.3999 5.73875C98.3084 5.68458 98.2119 5.63041 98.1053 5.56705C97.5213 5.22365 96.7644 5.04684 95.8567 5.04684C94.7329 5.04684 93.8212 5.2676 93.1356 5.704C92.4792 6.12098 92.1616 6.71477 92.1616 7.50888C92.1616 8.25495 92.451 8.86305 93.0491 9.36792C93.6472 9.8728 94.7761 10.2264 96.3874 10.3899C98.2843 10.5821 99.779 11.1748 100.831 12.156C101.894 13.1555 102.431 14.48 102.431 16.0938Z" fill="white"/>
<path d="M117.256 3.59047C115.836 2.77081 114.192 2.35076 112.375 2.35076H108.053C107.87 2.34695 107.689 2.38003 107.519 2.4481C107.349 2.51617 107.194 2.61787 107.063 2.7473C106.93 2.87996 106.825 3.03934 106.756 3.21529C106.687 3.39124 106.654 3.57992 106.661 3.76932V20.2238C106.658 20.4107 106.693 20.5962 106.762 20.7694C106.832 20.9425 106.934 21.0999 107.064 21.232C107.194 21.3642 107.349 21.4686 107.519 21.5391C107.69 21.6096 107.872 21.6447 108.056 21.6423H112.378C114.198 21.6423 115.839 21.2264 117.259 20.4067C118.664 19.6009 119.819 18.4095 120.591 16.9687C121.381 15.5102 121.781 13.8331 121.781 11.9843C121.781 10.1355 121.379 8.46344 120.591 7.0132C119.815 5.57827 118.66 4.39267 117.256 3.59047ZM112.375 19.0996H109.444V4.9058H112.375C113.665 4.9058 114.833 5.2124 115.848 5.80824C116.858 6.40286 117.684 7.27446 118.23 8.32342C118.797 9.39858 119.084 10.6332 119.084 11.9925C119.084 13.3517 118.796 14.5925 118.229 15.6717C117.687 16.7264 116.861 17.6029 115.848 18.1992C114.834 18.796 113.665 19.0996 112.375 19.0996Z" fill="white"/>
<path d="M133.44 13.6337C134.395 13.1741 135.198 12.444 135.755 11.5311C136.311 10.6182 136.596 9.5615 136.575 8.48788C136.575 7.3003 136.307 6.22719 135.778 5.2992C135.251 4.37397 134.476 3.62038 133.543 3.12639C132.542 2.60084 131.43 2.3344 130.304 2.35068H126.002C125.819 2.34687 125.637 2.37995 125.468 2.44802C125.298 2.51609 125.143 2.61779 125.012 2.74722C124.878 2.87977 124.774 3.03912 124.704 3.2151C124.635 3.39108 124.603 3.57982 124.609 3.76924V20.2237C124.611 20.5061 124.694 20.7817 124.849 21.0161C125.004 21.2504 125.224 21.4328 125.48 21.5405C125.737 21.6481 126.019 21.6761 126.292 21.6209C126.564 21.5657 126.814 21.4298 127.011 21.2304C127.138 21.097 127.238 20.9394 127.304 20.7666C127.371 20.5938 127.404 20.4093 127.4 20.2237V14.3267H130.653L134.721 20.9626C134.844 21.1752 135.021 21.3503 135.233 21.4698C135.445 21.5894 135.685 21.6489 135.927 21.6423C136.107 21.6507 136.286 21.622 136.455 21.5576C136.623 21.4933 136.777 21.3949 136.907 21.2682C137.027 21.1483 137.121 21.005 137.184 20.8468C137.248 20.6887 137.278 20.5191 137.275 20.3484C137.272 20.0344 137.181 19.7277 137.013 19.4643L133.44 13.6337ZM133.882 8.48788C133.882 9.4261 133.545 10.1998 132.876 10.7905C132.208 11.3812 131.339 11.6878 130.299 11.6878H127.392V4.9977H130.299C131.337 4.9977 132.203 5.32679 132.871 5.97475C133.54 6.62271 133.882 7.46791 133.882 8.48788Z" fill="white"/>
<path d="M174.338 2.35068C174.156 2.34658 173.974 2.37944 173.805 2.44735C173.635 2.51525 173.48 2.61684 173.349 2.7462C173.216 2.87889 173.112 3.03828 173.042 3.21422C172.973 3.39016 172.941 3.57882 172.947 3.76821V16.5863L162.802 2.86884C162.668 2.71722 162.507 2.59363 162.326 2.505C162.145 2.40754 161.943 2.35468 161.738 2.35068C161.557 2.34589 161.377 2.37868 161.208 2.44703C161.04 2.51538 160.887 2.61786 160.759 2.74824C160.629 2.8826 160.527 3.04256 160.46 3.21831C160.393 3.39405 160.362 3.58188 160.369 3.77026V20.2033C160.362 20.3916 160.393 20.5795 160.46 20.7552C160.527 20.9309 160.629 21.0909 160.759 21.2253C161.028 21.483 161.384 21.6254 161.753 21.6228C162.123 21.6201 162.477 21.4726 162.742 21.211C162.869 21.078 162.969 20.9205 163.036 20.7479C163.103 20.5752 163.135 20.3908 163.131 20.2053V7.41374L173.257 21.1149C173.376 21.2919 173.547 21.4266 173.745 21.5002C173.934 21.5778 174.135 21.6187 174.338 21.6208C174.519 21.6257 174.699 21.5929 174.868 21.5246C175.036 21.4562 175.188 21.3537 175.316 21.2232C175.446 21.0888 175.548 20.9289 175.615 20.7532C175.683 20.5775 175.714 20.3896 175.707 20.2012V3.77128C175.714 3.58285 175.683 3.39506 175.615 3.21934C175.548 3.04363 175.446 2.88368 175.316 2.74926C175.188 2.61878 175.036 2.51615 174.868 2.44762C174.699 2.37909 174.519 2.34611 174.338 2.35068Z" fill="white"/>
<path d="M192.617 19.3377C192.345 19.094 191.992 18.9663 191.63 18.981H182.233V13.2219H188.933C189.292 13.2328 189.642 13.1004 189.907 12.853C190.031 12.7292 190.13 12.5814 190.198 12.4182C190.266 12.2549 190.3 12.0796 190.3 11.9025C190.3 11.7254 190.266 11.5501 190.198 11.3868C190.13 11.2236 190.031 11.0758 189.907 10.952C189.642 10.705 189.292 10.5726 188.933 10.5831H182.233V4.99469H191.63C191.992 5.00996 192.346 4.88172 192.617 4.63698C192.743 4.51749 192.842 4.37193 192.908 4.21009C192.974 4.04825 193.006 3.8739 193 3.69877C193.006 3.51857 192.976 3.33896 192.91 3.17142C192.845 3.00389 192.745 2.85212 192.619 2.72581C192.486 2.60067 192.331 2.50347 192.161 2.43979C191.991 2.37612 191.811 2.34724 191.63 2.35482H180.837C180.654 2.35072 180.473 2.38359 180.303 2.45149C180.133 2.5194 179.978 2.62099 179.848 2.75034C179.715 2.88304 179.61 3.04242 179.541 3.21836C179.472 3.39431 179.439 3.58297 179.446 3.77236V20.2033C179.443 20.3899 179.477 20.5752 179.546 20.7481C179.615 20.9211 179.718 21.0783 179.847 21.2104C179.977 21.3425 180.131 21.4469 180.301 21.5174C180.471 21.5879 180.653 21.623 180.837 21.6208H191.627C191.808 21.6281 191.988 21.599 192.158 21.5352C192.328 21.4714 192.484 21.374 192.617 21.2488C192.743 21.1226 192.842 20.971 192.908 20.8036C192.973 20.6362 193.003 20.4569 192.997 20.2769C193.003 20.1016 192.972 19.927 192.906 19.765C192.839 19.603 192.74 19.4573 192.614 19.3377H192.617Z" fill="white"/>
<path d="M145.002 19.3316C145.141 19.0135 145.386 18.7553 145.693 18.6017C146.001 18.4482 146.351 18.4092 146.684 18.4915C148.083 18.8284 149.553 18.6883 150.866 18.0927C152.18 17.4972 153.264 16.4792 153.953 15.1956C154.641 13.9119 154.896 12.4337 154.677 10.9886C154.458 9.54352 153.778 8.21162 152.742 7.19798C151.705 6.18434 150.37 5.54517 148.941 5.37889C147.512 5.2126 146.069 5.52842 144.834 6.27772C143.599 7.02701 142.641 8.16824 142.107 9.52569C141.572 10.8831 141.492 12.3815 141.877 13.7902C141.97 14.1247 141.944 14.4816 141.805 14.799C141.666 15.1164 141.422 15.3742 141.115 15.5276C140.225 15.9712 139.313 15.5276 139.049 14.5598C138.657 13.1062 138.604 11.5794 138.896 10.1015C139.188 8.62359 139.816 7.23558 140.729 6.04841C143.075 2.96397 147.136 1.63535 150.821 2.73708C153.195 3.43702 155.206 5.05137 156.427 7.23643C157.648 9.42149 157.981 12.0047 157.357 14.436C156.732 16.8674 155.199 18.9548 153.083 20.254C150.968 21.5532 148.437 21.9615 146.03 21.3919C145.818 21.3436 145.619 21.2483 145.448 21.1128C145.276 20.9772 145.136 20.8048 145.038 20.6079C144.94 20.411 144.886 20.1945 144.88 19.9738C144.873 19.7532 144.915 19.5338 145.002 19.3316Z" fill="white"/>
</g>
<defs>
<clipPath id="clip0_525_941">
<rect width="193" height="24" fill="white"/>
</clipPath>
</defs>
</svg>
