<svg width="30" height="30" viewBox="0 0 30 30" fill="none" xmlns="http://www.w3.org/2000/svg">
<path d="M24 6.625C26.25 6.625 28.125 8.5 28.125 10.75C28.125 13 26.25 14.875 24 14.875C21.75 14.875 19.875 13 19.875 10.75C19.875 8.5 21.75 6.625 24 6.625ZM14 8.375C16 8.375 17.75 10 17.75 12C17.75 14 16.125 15.625 14 15.625C12 15.625 10.375 14 10.375 12C10.375 10 12 8.375 14 8.375ZM1.75 13.25C1.75 11.5 3.25 10 5 10C6.75 10 8.25 11.375 8.25 13.125C8.25 14.875 6.75 16.25 5 16.25C3.25 16.25 1.75 15 1.75 13.25ZM1.375 22.125C1.375 20.375 2.875 18.375 5 18.375C7.125 18.375 8.625 20.25 8.625 22.125V23.375H1.375V22.125ZM9.875 22.125V21.875C9.875 19.875 11.5 17.75 14 17.75C16.5 17.75 18.125 19.875 18.125 21.875V23.25H9.875V22.125ZM28.625 23.375H19.375V22V21.75C19.375 19.5 21.25 17 24 17C26.75 17 28.625 19.375 28.625 21.75V23.375Z" fill="black"/>
</svg>
