<svg width="33" height="33" viewBox="0 0 33 33" fill="none" xmlns="http://www.w3.org/2000/svg">
<g clip-path="url(#clip0_525_1189)">
<path d="M15.9753 1.81671V3.31725H13.2914V4.29321H15.9753V7.28209H17.0244V4.29321H19.7754V3.31725H17.0244V0.322266H15.9753V1.81671Z" fill="#7099A6"/>
<path d="M7.2038 5.62293V7.80054H3.14136V9.16689H7.2038V13.5892H8.71044V9.16689H12.8339V7.80054H8.71044V3.44531H7.2038V5.62293Z" fill="#EB912C"/>
<path d="M24.2282 5.62293V7.80054H20.1658V9.23399H24.2282V13.5892H25.7959V9.23399H29.8583V7.80054H25.7959V3.44531H24.2282V5.62293Z" fill="#59879B"/>
<path d="M15.5849 13.0402V15.4802H11.0649V17.2979H15.5849V22.1777H17.4148V17.2979H21.9347V15.4802H17.4148V10.6003H15.5849V13.0402Z" fill="#E8762C"/>
<path d="M28.8762 14.2725V15.8035H26.1252V17.0418H28.8762V20.0978H30.2487V17.0418H32.9997V15.8035H30.2487V12.7476H28.8762V14.2725Z" fill="#5B6591"/>
<path d="M2.6839 14.4066V15.8705H0V16.9075H2.6839V19.8354H3.73305V16.9075L6.48405 16.8099V15.8705H3.73305V12.9426H2.6839V14.4066Z" fill="#7099A6"/>
<path d="M7.2038 21.2994V23.4771H3.14136V24.9105H7.2038V29.2657H8.77144V24.9105H12.8339V23.4771H8.77144V19.1218H7.2038V21.2994Z" fill="#C72035"/>
<path d="M24.2282 21.2994V23.4771H20.1658V24.8434H24.2282V29.2657H25.7959V24.8434H29.8583V23.4771H25.7959V19.1218H24.2282V21.2994Z" fill="#1F447E"/>
<path d="M15.8472 26.8318V28.3568H13.0962V29.595H15.8472V32.651H17.2196V29.595H19.9706V28.3568H17.2196V25.3008H15.8472V26.8318Z" fill="#5B6591"/>
</g>
<defs>
<clipPath id="clip0_525_1189">
<rect width="33" height="33" fill="white"/>
</clipPath>
</defs>
</svg>
