<svg width="601" height="49" viewBox="0 0 601 49" fill="none" xmlns="http://www.w3.org/2000/svg">
<path d="M10.892 45L0.903409 10.0909H8.96591L14.7443 34.3466H15.0341L21.4091 10.0909H28.3125L34.6705 34.3977H34.9773L40.7557 10.0909H48.8182L38.8295 45H31.6364L24.9886 22.1761H24.7159L18.0852 45H10.892ZM59.8935 29.8636V45H52.6321V10.0909H59.6889V23.4375H59.9957C60.5866 21.892 61.5412 20.6818 62.8594 19.8068C64.1776 18.9205 65.831 18.4773 67.8196 18.4773C69.6378 18.4773 71.223 18.875 72.5753 19.6705C73.9389 20.4545 74.9957 21.5852 75.7457 23.0625C76.5071 24.5284 76.8821 26.2841 76.8707 28.3295V45H69.6094V29.625C69.6207 28.0114 69.2116 26.7557 68.3821 25.858C67.5639 24.9602 66.4162 24.5114 64.9389 24.5114C63.9503 24.5114 63.0753 24.7216 62.3139 25.142C61.5639 25.5625 60.973 26.1761 60.5412 26.983C60.1207 27.7784 59.9048 28.7386 59.8935 29.8636ZM90.0511 45.4943C88.3807 45.4943 86.892 45.2045 85.5852 44.625C84.2784 44.0341 83.2443 43.1648 82.483 42.017C81.733 40.858 81.358 39.4148 81.358 37.6875C81.358 36.233 81.625 35.0114 82.1591 34.0227C82.6932 33.0341 83.4205 32.2386 84.3409 31.6364C85.2614 31.0341 86.3068 30.5795 87.4773 30.2727C88.6591 29.9659 89.8977 29.75 91.1932 29.625C92.7159 29.4659 93.9432 29.3182 94.875 29.1818C95.8068 29.0341 96.483 28.8182 96.9034 28.5341C97.3239 28.25 97.5341 27.8295 97.5341 27.2727V27.1705C97.5341 26.0909 97.1932 25.2557 96.5114 24.6648C95.8409 24.0739 94.8864 23.7784 93.6477 23.7784C92.3409 23.7784 91.3011 24.0682 90.5284 24.6477C89.7557 25.2159 89.2443 25.9318 88.9943 26.7955L82.2784 26.25C82.6193 24.6591 83.2898 23.2841 84.2898 22.125C85.2898 20.9545 86.5795 20.0568 88.1591 19.4318C89.75 18.7955 91.5909 18.4773 93.6818 18.4773C95.1364 18.4773 96.5284 18.6477 97.858 18.9886C99.1989 19.3295 100.386 19.858 101.42 20.5739C102.466 21.2898 103.29 22.2102 103.892 23.3352C104.494 24.4489 104.795 25.7841 104.795 27.3409V45H97.9091V41.3693H97.7045C97.2841 42.1875 96.7216 42.9091 96.017 43.5341C95.3125 44.1477 94.4659 44.6307 93.4773 44.983C92.4886 45.3239 91.3466 45.4943 90.0511 45.4943ZM92.1307 40.483C93.1989 40.483 94.142 40.2727 94.9602 39.8523C95.7784 39.4205 96.4205 38.8409 96.8864 38.1136C97.3523 37.3864 97.5852 36.5625 97.5852 35.642V32.8636C97.358 33.0114 97.0455 33.1477 96.6477 33.2727C96.2614 33.3864 95.8239 33.4943 95.3352 33.5966C94.8466 33.6875 94.358 33.7727 93.8693 33.8523C93.3807 33.9205 92.9375 33.983 92.5398 34.0398C91.6875 34.1648 90.9432 34.3636 90.3068 34.6364C89.6705 34.9091 89.1761 35.2784 88.8239 35.7443C88.4716 36.1989 88.2955 36.767 88.2955 37.4489C88.2955 38.4375 88.6534 39.1932 89.3693 39.7159C90.0966 40.2273 91.017 40.483 92.1307 40.483ZM124.355 18.8182V24.2727H108.588V18.8182H124.355ZM112.168 12.5455H119.429V36.9545C119.429 37.625 119.531 38.1477 119.736 38.5227C119.94 38.8864 120.224 39.142 120.588 39.2898C120.963 39.4375 121.395 39.5114 121.884 39.5114C122.224 39.5114 122.565 39.483 122.906 39.4261C123.247 39.358 123.509 39.3068 123.69 39.2727L124.832 44.6761C124.469 44.7898 123.957 44.9205 123.298 45.0682C122.639 45.2273 121.838 45.3239 120.895 45.358C119.145 45.4261 117.611 45.1932 116.293 44.6591C114.986 44.125 113.969 43.2955 113.241 42.1705C112.514 41.0455 112.156 39.625 112.168 37.9091V12.5455ZM140.195 45V18.8182H147.456V45H140.195ZM143.842 15.4432C142.763 15.4432 141.837 15.0852 141.064 14.3693C140.303 13.642 139.922 12.7727 139.922 11.7614C139.922 10.7614 140.303 9.90341 141.064 9.1875C141.837 8.46023 142.763 8.09659 143.842 8.09659C144.922 8.09659 145.842 8.46023 146.604 9.1875C147.376 9.90341 147.763 10.7614 147.763 11.7614C147.763 12.7727 147.376 13.642 146.604 14.3693C145.842 15.0852 144.922 15.4432 143.842 15.4432ZM175.057 26.2841L168.409 26.6932C168.295 26.125 168.051 25.6136 167.676 25.1591C167.301 24.6932 166.807 24.3239 166.193 24.0511C165.591 23.767 164.869 23.625 164.028 23.625C162.903 23.625 161.955 23.8636 161.182 24.3409C160.409 24.8068 160.023 25.4318 160.023 26.2159C160.023 26.8409 160.273 27.3693 160.773 27.8011C161.273 28.233 162.131 28.5795 163.347 28.8409L168.085 29.7955C170.631 30.3182 172.528 31.1591 173.778 32.3182C175.028 33.4773 175.653 35 175.653 36.8864C175.653 38.6023 175.148 40.108 174.136 41.4034C173.136 42.6989 171.761 43.7102 170.011 44.4375C168.273 45.1534 166.267 45.5114 163.994 45.5114C160.528 45.5114 157.767 44.7898 155.71 43.3466C153.665 41.892 152.466 39.9148 152.114 37.4148L159.256 37.0398C159.472 38.0966 159.994 38.9034 160.824 39.4602C161.653 40.0057 162.716 40.2784 164.011 40.2784C165.284 40.2784 166.307 40.0341 167.08 39.5455C167.864 39.0455 168.261 38.4034 168.273 37.6193C168.261 36.9602 167.983 36.4205 167.438 36C166.892 35.5682 166.051 35.2386 164.915 35.0114L160.381 34.108C157.824 33.5966 155.92 32.7102 154.67 31.4489C153.432 30.1875 152.812 28.5795 152.812 26.625C152.812 24.9432 153.267 23.4943 154.176 22.2784C155.097 21.0625 156.386 20.125 158.045 19.4659C159.716 18.8068 161.67 18.4773 163.909 18.4773C167.216 18.4773 169.818 19.1761 171.716 20.5739C173.625 21.9716 174.739 23.875 175.057 26.2841ZM191.472 45V10.0909H205.244C207.881 10.0909 210.131 10.5625 211.994 11.5057C213.869 12.4375 215.295 13.7614 216.273 15.4773C217.261 17.1818 217.756 19.1875 217.756 21.4943C217.756 23.8125 217.256 25.8068 216.256 27.4773C215.256 29.1364 213.807 30.4091 211.909 31.2955C210.023 32.1818 207.739 32.625 205.057 32.625H195.835V26.6932H203.864C205.273 26.6932 206.443 26.5 207.375 26.1136C208.307 25.7273 209 25.1477 209.455 24.375C209.92 23.6023 210.153 22.642 210.153 21.4943C210.153 20.3352 209.92 19.358 209.455 18.5625C209 17.767 208.301 17.1648 207.358 16.7557C206.426 16.3352 205.25 16.125 203.83 16.125H198.852V45H191.472ZM210.324 29.1136L219 45H210.852L202.364 29.1136H210.324ZM234.345 45.5114C231.652 45.5114 229.334 44.9659 227.391 43.875C225.459 42.7727 223.97 41.2159 222.925 39.2045C221.879 37.1818 221.357 34.7898 221.357 32.0284C221.357 29.3352 221.879 26.9716 222.925 24.9375C223.97 22.9034 225.442 21.3182 227.339 20.1818C229.249 19.0455 231.487 18.4773 234.055 18.4773C235.783 18.4773 237.391 18.7557 238.879 19.3125C240.379 19.858 241.686 20.6818 242.8 21.7841C243.925 22.8864 244.8 24.2727 245.425 25.9432C246.05 27.6023 246.362 29.5455 246.362 31.7727V33.767H224.254V29.267H239.527C239.527 28.2216 239.3 27.2955 238.845 26.4886C238.391 25.6818 237.76 25.0511 236.953 24.5966C236.158 24.1307 235.232 23.8977 234.175 23.8977C233.072 23.8977 232.095 24.1534 231.243 24.6648C230.402 25.1648 229.743 25.8409 229.266 26.6932C228.788 27.5341 228.544 28.4716 228.533 29.5057V33.7841C228.533 35.0795 228.771 36.1989 229.249 37.142C229.737 38.0852 230.425 38.8125 231.311 39.3239C232.197 39.8352 233.249 40.0909 234.464 40.0909C235.271 40.0909 236.01 39.9773 236.68 39.75C237.351 39.5227 237.925 39.1818 238.402 38.7273C238.879 38.2727 239.243 37.7159 239.493 37.0568L246.209 37.5C245.868 39.1136 245.169 40.5227 244.112 41.7273C243.067 42.9205 241.714 43.8523 240.055 44.5227C238.408 45.1818 236.504 45.5114 234.345 45.5114ZM274.807 18.8182L265.653 45H257.472L248.318 18.8182H255.989L261.426 37.5511H261.699L267.119 18.8182H274.807ZM289.611 45.5114C286.918 45.5114 284.599 44.9659 282.656 43.875C280.724 42.7727 279.236 41.2159 278.19 39.2045C277.145 37.1818 276.622 34.7898 276.622 32.0284C276.622 29.3352 277.145 26.9716 278.19 24.9375C279.236 22.9034 280.707 21.3182 282.605 20.1818C284.514 19.0455 286.753 18.4773 289.321 18.4773C291.048 18.4773 292.656 18.7557 294.145 19.3125C295.645 19.858 296.952 20.6818 298.065 21.7841C299.19 22.8864 300.065 24.2727 300.69 25.9432C301.315 27.6023 301.628 29.5455 301.628 31.7727V33.767H279.52V29.267H294.793C294.793 28.2216 294.565 27.2955 294.111 26.4886C293.656 25.6818 293.026 25.0511 292.219 24.5966C291.423 24.1307 290.497 23.8977 289.44 23.8977C288.338 23.8977 287.361 24.1534 286.509 24.6648C285.668 25.1648 285.009 25.8409 284.531 26.6932C284.054 27.5341 283.81 28.4716 283.798 29.5057V33.7841C283.798 35.0795 284.037 36.1989 284.514 37.142C285.003 38.0852 285.69 38.8125 286.577 39.3239C287.463 39.8352 288.514 40.0909 289.73 40.0909C290.537 40.0909 291.276 39.9773 291.946 39.75C292.616 39.5227 293.19 39.1818 293.668 38.7273C294.145 38.2727 294.509 37.7159 294.759 37.0568L301.474 37.5C301.134 39.1136 300.435 40.5227 299.378 41.7273C298.332 42.9205 296.98 43.8523 295.321 44.5227C293.673 45.1818 291.77 45.5114 289.611 45.5114ZM313.628 29.8636V45H306.366V18.8182H313.287V23.4375H313.594C314.173 21.9148 315.145 20.7102 316.509 19.8239C317.872 18.9261 319.526 18.4773 321.469 18.4773C323.287 18.4773 324.872 18.875 326.224 19.6705C327.577 20.4659 328.628 21.6023 329.378 23.0795C330.128 24.5455 330.503 26.2955 330.503 28.3295V45H323.241V29.625C323.253 28.0227 322.844 26.7727 322.014 25.875C321.185 24.9659 320.043 24.5114 318.588 24.5114C317.611 24.5114 316.747 24.7216 315.997 25.142C315.259 25.5625 314.679 26.1761 314.259 26.983C313.849 27.7784 313.639 28.7386 313.628 29.8636ZM353.016 33.8523V18.8182H360.277V45H353.305V40.2443H353.033C352.442 41.7784 351.459 43.0114 350.084 43.9432C348.72 44.875 347.055 45.3409 345.089 45.3409C343.339 45.3409 341.8 44.9432 340.47 44.1477C339.141 43.3523 338.101 42.2216 337.351 40.7557C336.612 39.2898 336.237 37.5341 336.226 35.4886V18.8182H343.487V34.1932C343.499 35.7386 343.913 36.9602 344.732 37.858C345.55 38.7557 346.646 39.2045 348.021 39.2045C348.896 39.2045 349.714 39.0057 350.476 38.608C351.237 38.1989 351.851 37.5966 352.317 36.8011C352.794 36.0057 353.027 35.0227 353.016 33.8523ZM378.017 45.5114C375.324 45.5114 373.006 44.9659 371.062 43.875C369.131 42.7727 367.642 41.2159 366.597 39.2045C365.551 37.1818 365.028 34.7898 365.028 32.0284C365.028 29.3352 365.551 26.9716 366.597 24.9375C367.642 22.9034 369.114 21.3182 371.011 20.1818C372.92 19.0455 375.159 18.4773 377.727 18.4773C379.455 18.4773 381.063 18.7557 382.551 19.3125C384.051 19.858 385.358 20.6818 386.472 21.7841C387.597 22.8864 388.472 24.2727 389.097 25.9432C389.722 27.6023 390.034 29.5455 390.034 31.7727V33.767H367.926V29.267H383.199C383.199 28.2216 382.972 27.2955 382.517 26.4886C382.063 25.6818 381.432 25.0511 380.625 24.5966C379.83 24.1307 378.903 23.8977 377.847 23.8977C376.744 23.8977 375.767 24.1534 374.915 24.6648C374.074 25.1648 373.415 25.8409 372.938 26.6932C372.46 27.5341 372.216 28.4716 372.205 29.5057V33.7841C372.205 35.0795 372.443 36.1989 372.92 37.142C373.409 38.0852 374.097 38.8125 374.983 39.3239C375.869 39.8352 376.92 40.0909 378.136 40.0909C378.943 40.0909 379.682 39.9773 380.352 39.75C381.023 39.5227 381.597 39.1818 382.074 38.7273C382.551 38.2727 382.915 37.7159 383.165 37.0568L389.881 37.5C389.54 39.1136 388.841 40.5227 387.784 41.7273C386.739 42.9205 385.386 43.8523 383.727 44.5227C382.08 45.1818 380.176 45.5114 378.017 45.5114ZM406.018 45V10.0909H413.399V38.9148H428.365V45H406.018ZM445.048 45.5114C442.355 45.5114 440.037 44.9659 438.094 43.875C436.162 42.7727 434.673 41.2159 433.628 39.2045C432.582 37.1818 432.06 34.7898 432.06 32.0284C432.06 29.3352 432.582 26.9716 433.628 24.9375C434.673 22.9034 436.145 21.3182 438.043 20.1818C439.952 19.0455 442.19 18.4773 444.759 18.4773C446.486 18.4773 448.094 18.7557 449.582 19.3125C451.082 19.858 452.389 20.6818 453.503 21.7841C454.628 22.8864 455.503 24.2727 456.128 25.9432C456.753 27.6023 457.065 29.5455 457.065 31.7727V33.767H434.957V29.267H450.23C450.23 28.2216 450.003 27.2955 449.548 26.4886C449.094 25.6818 448.463 25.0511 447.656 24.5966C446.861 24.1307 445.935 23.8977 444.878 23.8977C443.776 23.8977 442.798 24.1534 441.946 24.6648C441.105 25.1648 440.446 25.8409 439.969 26.6932C439.491 27.5341 439.247 28.4716 439.236 29.5057V33.7841C439.236 35.0795 439.474 36.1989 439.952 37.142C440.44 38.0852 441.128 38.8125 442.014 39.3239C442.901 39.8352 443.952 40.0909 445.168 40.0909C445.974 40.0909 446.713 39.9773 447.384 39.75C448.054 39.5227 448.628 39.1818 449.105 38.7273C449.582 38.2727 449.946 37.7159 450.196 37.0568L456.912 37.5C456.571 39.1136 455.872 40.5227 454.815 41.7273C453.77 42.9205 452.418 43.8523 450.759 44.5227C449.111 45.1818 447.207 45.5114 445.048 45.5114ZM469.27 45.4943C467.599 45.4943 466.111 45.2045 464.804 44.625C463.497 44.0341 462.463 43.1648 461.702 42.017C460.952 40.858 460.577 39.4148 460.577 37.6875C460.577 36.233 460.844 35.0114 461.378 34.0227C461.912 33.0341 462.639 32.2386 463.56 31.6364C464.48 31.0341 465.526 30.5795 466.696 30.2727C467.878 29.9659 469.116 29.75 470.412 29.625C471.935 29.4659 473.162 29.3182 474.094 29.1818C475.026 29.0341 475.702 28.8182 476.122 28.5341C476.543 28.25 476.753 27.8295 476.753 27.2727V27.1705C476.753 26.0909 476.412 25.2557 475.73 24.6648C475.06 24.0739 474.105 23.7784 472.866 23.7784C471.56 23.7784 470.52 24.0682 469.747 24.6477C468.974 25.2159 468.463 25.9318 468.213 26.7955L461.497 26.25C461.838 24.6591 462.509 23.2841 463.509 22.125C464.509 20.9545 465.798 20.0568 467.378 19.4318C468.969 18.7955 470.81 18.4773 472.901 18.4773C474.355 18.4773 475.747 18.6477 477.077 18.9886C478.418 19.3295 479.605 19.858 480.639 20.5739C481.685 21.2898 482.509 22.2102 483.111 23.3352C483.713 24.4489 484.014 25.7841 484.014 27.3409V45H477.128V41.3693H476.923C476.503 42.1875 475.94 42.9091 475.236 43.5341C474.531 44.1477 473.685 44.6307 472.696 44.983C471.707 45.3239 470.565 45.4943 469.27 45.4943ZM471.349 40.483C472.418 40.483 473.361 40.2727 474.179 39.8523C474.997 39.4205 475.639 38.8409 476.105 38.1136C476.571 37.3864 476.804 36.5625 476.804 35.642V32.8636C476.577 33.0114 476.264 33.1477 475.866 33.2727C475.48 33.3864 475.043 33.4943 474.554 33.5966C474.065 33.6875 473.577 33.7727 473.088 33.8523C472.599 33.9205 472.156 33.983 471.759 34.0398C470.906 34.1648 470.162 34.3636 469.526 34.6364C468.889 34.9091 468.395 35.2784 468.043 35.7443C467.69 36.1989 467.514 36.767 467.514 37.4489C467.514 38.4375 467.872 39.1932 468.588 39.7159C469.315 40.2273 470.236 40.483 471.349 40.483ZM496.227 37.4659L496.244 28.7557H497.301L505.688 18.8182H514.023L502.756 31.9773H501.034L496.227 37.4659ZM489.648 45V10.0909H496.909V45H489.648ZM506.011 45L498.307 33.5966L503.148 28.4659L514.517 45H506.011ZM523.824 34.5341V33.9545C523.835 31.9659 524.011 30.3807 524.352 29.1989C524.705 28.017 525.216 27.0625 525.886 26.3352C526.557 25.608 527.364 24.9489 528.307 24.358C529.011 23.9034 529.642 23.4318 530.199 22.9432C530.756 22.4545 531.199 21.9148 531.528 21.3239C531.858 20.7216 532.023 20.0511 532.023 19.3125C532.023 18.5284 531.835 17.8409 531.46 17.25C531.085 16.6591 530.58 16.2045 529.943 15.8864C529.318 15.5682 528.625 15.4091 527.864 15.4091C527.125 15.4091 526.426 15.5739 525.767 15.9034C525.108 16.2216 524.568 16.6989 524.148 17.3352C523.727 17.9602 523.5 18.7386 523.466 19.6705H516.511C516.568 17.3977 517.114 15.5227 518.148 14.0455C519.182 12.5568 520.551 11.4489 522.256 10.7216C523.96 9.98295 525.841 9.61364 527.898 9.61364C530.159 9.61364 532.159 9.98864 533.898 10.7386C535.636 11.4773 537 12.5511 537.989 13.9602C538.977 15.3693 539.472 17.0682 539.472 19.0568C539.472 20.3864 539.25 21.5682 538.807 22.6023C538.375 23.625 537.767 24.5341 536.983 25.3295C536.199 26.1136 535.273 26.8239 534.205 27.4602C533.307 27.9943 532.568 28.5511 531.989 29.1307C531.42 29.7102 530.994 30.3807 530.71 31.142C530.438 31.9034 530.295 32.8409 530.284 33.9545V34.5341H523.824ZM527.199 45.4432C526.062 45.4432 525.091 45.0455 524.284 44.25C523.489 43.4432 523.097 42.4773 523.108 41.3523C523.097 40.2386 523.489 39.2841 524.284 38.4886C525.091 37.6932 526.062 37.2955 527.199 37.2955C528.278 37.2955 529.227 37.6932 530.045 38.4886C530.864 39.2841 531.278 40.2386 531.29 41.3523C531.278 42.1023 531.08 42.7898 530.693 43.4148C530.318 44.0284 529.824 44.5227 529.21 44.8977C528.597 45.2614 527.926 45.4432 527.199 45.4432ZM552.797 48.36H600.797V0.36H552.797V48.36Z" fill="white"/>
</svg>
